<svg width="66" height="66" fill="none" xmlns="http://www.w3.org/2000/svg"><rect x=".8" y=".8" width="64.4" height="64.4" rx="21.6" stroke="#000" stroke-opacity=".03" stroke-width="1.6"/><path fill-rule="evenodd" clip-rule="evenodd" d="M6 22.221a8.024 8.024 0 014.223-7.07l19-10.201a7.982 7.982 0 017.553 0l19 10.2A8.024 8.024 0 0160 22.221v21.558a8.024 8.024 0 01-4.224 7.07l-19 10.201a7.982 7.982 0 01-7.553 0l-19-10.2A8.024 8.024 0 016 43.779V22.221z" fill="url(#paint0_radial_748_27461)"/><path fill-rule="evenodd" clip-rule="evenodd" d="M9 23.313a7.218 7.218 0 013.779-6.345l16.78-9.095a7.222 7.222 0 016.882 0l16.78 9.095A7.218 7.218 0 0157 23.313v19.374a7.218 7.218 0 01-3.779 6.345l-16.78 9.095a7.222 7.222 0 01-6.882 0l-16.78-9.095A7.218 7.218 0 019 42.687V23.313z" fill="url(#paint1_radial_748_27461)"/><rect x="13.5" y="34.667" width="4" height="8.333" rx="1.333" fill="#80B4EA"/><rect x="52.5" y="43" width="4" height="8.333" rx="1.333" transform="rotate(-180 52.5 43)" fill="#80B4EA"/><circle cx="33.167" cy="17" r="3" fill="#80B4EA"/><path fill-rule="evenodd" clip-rule="evenodd" d="M29.167 22.333c-5.34 0-9.667 4.328-9.667 9.667v10a5.333 5.333 0 005.333 5.333h16.334A5.333 5.333 0 0046.5 42V32c0-5.339-4.328-9.667-9.667-9.667h-7.666zM31.7 36.167a4.5 4.5 0 11-9 0 4.5 4.5 0 019 0zm11.667 0a4.5 4.5 0 11-9 0 4.5 4.5 0 019 0z" fill="#80B4EA"/><defs><radialGradient id="paint0_radial_748_27461" cx="0" cy="0" r="1" gradientUnits="userSpaceOnUse" gradientTransform="rotate(52.666 -.298 25.93) scale(53.5896 48.1998)"><stop stop-color="#6CA7E7"/><stop offset="1" stop-color="#345385"/></radialGradient><radialGradient id="paint1_radial_748_27461" cx="0" cy="0" r="1" gradientUnits="userSpaceOnUse" gradientTransform="matrix(0 53.9852 -48 0 33 6.007)"><stop stop-color="#263A5E"/><stop offset="1" stop-color="#0C1321"/></radialGradient></defs></svg>