<svg width="66" height="66" fill="none" xmlns="http://www.w3.org/2000/svg"><rect x=".8" y=".8" width="64.4" height="64.4" rx="21.6" stroke="#000" stroke-opacity=".03" stroke-width="1.6"/><path fill-rule="evenodd" clip-rule="evenodd" d="M6 22.221a8.024 8.024 0 014.223-7.07l19-10.201a7.982 7.982 0 017.553 0l19 10.2A8.024 8.024 0 0160 22.221v21.558a8.024 8.024 0 01-4.224 7.07l-19 10.201a7.982 7.982 0 01-7.553 0l-19-10.2A8.024 8.024 0 016 43.779V22.221z" fill="url(#paint0_radial_746_28704)"/><path fill-rule="evenodd" clip-rule="evenodd" d="M9 23.313a7.218 7.218 0 013.779-6.345l16.78-9.095a7.222 7.222 0 016.882 0l16.78 9.095A7.218 7.218 0 0157 23.313v19.374a7.218 7.218 0 01-3.779 6.345l-16.78 9.095a7.222 7.222 0 01-6.882 0l-16.78-9.095A7.218 7.218 0 019 42.687V23.313z" fill="url(#paint1_radial_746_28704)"/><g opacity=".2" filter="url(#filter0_d_746_28704)"><path d="M28.017 57.562l2.622-6.13-1.344-2.622-3.304-3.218-1.311 3.218L16 50.5l8 5 4.017 2.062z" fill="url(#paint2_radial_746_28704)"/></g><path fill-rule="evenodd" clip-rule="evenodd" d="M14.73 19.793L22.17 16l7.538 3.79-7.489 3.788-7.488-3.785z" fill="url(#paint3_linear_746_28704)"/><g filter="url(#filter1_d_746_28704)"><path fill-rule="evenodd" clip-rule="evenodd" d="M14.73 19.793L22.17 16l7.538 3.79-7.489 3.788-7.488-3.785z" fill="url(#paint4_radial_746_28704)"/></g><path fill-rule="evenodd" clip-rule="evenodd" d="M22.22 23.578v26.793l7.52-3.844-.032-26.738-7.488 3.79z" fill="url(#paint5_linear_746_28704)"/><path opacity=".705" fill-rule="evenodd" clip-rule="evenodd" d="M22.22 23.578v26.793l7.52-3.844-.032-26.738-7.488 3.789z" fill="url(#paint6_radial_746_28704)"/><path fill-rule="evenodd" clip-rule="evenodd" d="M14.73 19.79l.03 26.835 7.46 3.746V23.578l-7.49-3.789z" fill="url(#paint7_radial_746_28704)"/><path opacity=".705" fill-rule="evenodd" clip-rule="evenodd" d="M14.73 19.789l.03 26.836 7.46 3.746V23.578l-7.49-3.789z" fill="url(#paint8_radial_746_28704)"/><path fill-rule="evenodd" clip-rule="evenodd" d="M22.22 41.07l16.61-8.533 7.299 3.678-16.42 8.64-7.49-3.786z" fill="url(#paint9_radial_746_28704)"/><path opacity=".705" fill-rule="evenodd" clip-rule="evenodd" d="M22.22 41.07l16.61-8.533 7.299 3.678-16.42 8.64-7.49-3.786z" fill="url(#paint10_radial_746_28704)"/><path fill-rule="evenodd" clip-rule="evenodd" d="M29.722 44.84l-.119 9.234 16.808-8.935-.282-8.924-16.407 8.625z" fill="url(#paint11_linear_746_28704)"/><path fill-rule="evenodd" clip-rule="evenodd" d="M29.722 44.84l-.119 9.234 16.808-8.935-.282-8.924-16.407 8.625z" fill="url(#paint12_radial_746_28704)"/><path fill-rule="evenodd" clip-rule="evenodd" d="M22.22 41.07l-.042 9.291 7.46 3.746.07-9.249-7.489-3.789z" fill="url(#paint13_linear_746_28704)"/><g filter="url(#filter2_d_746_28704)"><path fill-rule="evenodd" clip-rule="evenodd" d="M22.22 41.07l-.042 9.291 7.46 3.746.07-9.249-7.489-3.789z" fill="url(#paint14_radial_746_28704)"/></g><path d="M29.657 44.896l16.271-8.684" stroke="url(#paint15_linear_746_28704)" stroke-width=".183" stroke-linecap="round" stroke-linejoin="round"/><path d="M29.657 44.896l-7.457-3.85" stroke="url(#paint16_linear_746_28704)" stroke-width=".183" stroke-linecap="round" stroke-linejoin="round"/><path d="M29.612 44.895v9.003" stroke="url(#paint17_linear_746_28704)" stroke-width=".183" stroke-linecap="round" stroke-linejoin="round"/><path fill-rule="evenodd" clip-rule="evenodd" d="M38.734 21.281l7.338-3.725 7.437 3.722L46.121 25l-7.387-3.719z" fill="url(#paint18_linear_746_28704)"/><path opacity=".705" fill-rule="evenodd" clip-rule="evenodd" d="M38.734 21.281l7.338-3.725 7.437 3.722L46.121 25l-7.387-3.719z" fill="url(#paint19_radial_746_28704)"/><path opacity=".82" d="M45.708 19.076l-3.954 1.977 3.625 1.867 2.746-1.318 2.307 1.099" stroke="#0D131E" stroke-width=".215"/><g filter="url(#filter3_d_746_28704)"><path fill-rule="evenodd" clip-rule="evenodd" d="M44.61 18.745l1.528.77 1.548-.769-1.538-.769-1.538.768z" fill="url(#paint20_radial_746_28704)"/></g><g filter="url(#filter4_d_746_28704)"><ellipse cx="42.962" cy="21.712" rx=".33" ry=".22" fill="url(#paint21_radial_746_28704)"/></g><g filter="url(#filter5_d_746_28704)"><ellipse cx="44.72" cy="22.591" rx=".33" ry=".22" fill="url(#paint22_radial_746_28704)"/></g><g filter="url(#filter6_d_746_28704)"><ellipse cx="46.917" cy="22.152" rx=".33" ry=".22" fill="url(#paint23_radial_746_28704)"/></g><g filter="url(#filter7_d_746_28704)"><ellipse cx="49.333" cy="22.152" rx=".33" ry=".22" fill="url(#paint24_radial_746_28704)"/></g><path fill-rule="evenodd" clip-rule="evenodd" d="M46.121 25v9.042l7.42-3.776-.032-8.988L46.121 25z" fill="url(#paint25_linear_746_28704)"/><path fill-rule="evenodd" clip-rule="evenodd" d="M46.121 25v9.042l7.42-3.776-.032-8.988L46.121 25z" fill="url(#paint26_radial_746_28704)"/><g filter="url(#filter8_d_746_28704)"><path fill-rule="evenodd" clip-rule="evenodd" d="M38.734 21.278l.028 9.085 7.36 3.68V25l-7.388-3.722z" fill="url(#paint27_radial_746_28704)"/></g><path d="M46.148 25.008l7.36-3.735" stroke="url(#paint28_linear_746_28704)" stroke-width=".183" stroke-linecap="round" stroke-linejoin="round"/><g opacity=".7" filter="url(#filter9_d_746_28704)"><path d="M44.72 36.981l1.428-.769-7.36-3.735L22.2 41.267h14.39l8.13-4.285z" fill="url(#paint29_radial_746_28704)"/></g><path d="M22.187 23.585l7.483-3.74" stroke="url(#paint30_linear_746_28704)" stroke-width=".183" stroke-linecap="round" stroke-linejoin="round"/><path d="M22.187 23.585l-7.457-3.85" stroke="url(#paint31_linear_746_28704)" stroke-width=".183" stroke-linecap="round" stroke-linejoin="round"/><path d="M22.142 23.585v13.377" stroke="url(#paint32_linear_746_28704)" stroke-width=".183" stroke-linecap="round" stroke-linejoin="round"/><defs><radialGradient id="paint0_radial_746_28704" cx="0" cy="0" r="1" gradientUnits="userSpaceOnUse" gradientTransform="rotate(55.134 .25 24.855) scale(52.4786 47.2006)"><stop stop-color="#46A3D9"/><stop offset="1" stop-color="#2F588C"/></radialGradient><radialGradient id="paint1_radial_746_28704" cx="0" cy="0" r="1" gradientUnits="userSpaceOnUse" gradientTransform="matrix(0 53.9852 -48 0 33 6.007)"><stop stop-color="#2E4D84"/><stop offset="1" stop-color="#0C1321"/></radialGradient><radialGradient id="paint2_radial_746_28704" cx="0" cy="0" r="1" gradientUnits="userSpaceOnUse" gradientTransform="rotate(19.44 -141.19 102.993) scale(4.2971 2.00624)"><stop stop-color="#21C8F6"/><stop offset="1" stop-color="#4BDEFF" stop-opacity="0"/></radialGradient><radialGradient id="paint4_radial_746_28704" cx="0" cy="0" r="1" gradientUnits="userSpaceOnUse" gradientTransform="matrix(6.41023 0 0 4.12231 25.126 20.565)"><stop stop-color="#21C8F6"/><stop offset="1" stop-color="#4BDEFF"/></radialGradient><radialGradient id="paint6_radial_746_28704" cx="0" cy="0" r="1" gradientUnits="userSpaceOnUse" gradientTransform="matrix(-12.93564 -.98512 2.62519 -34.47128 35.136 33.353)"><stop stop-color="#25C2F2" stop-opacity=".626"/><stop offset="1" stop-color="#293F64"/></radialGradient><radialGradient id="paint7_radial_746_28704" cx="0" cy="0" r="1" gradientUnits="userSpaceOnUse" gradientTransform="rotate(71.698 -7.857 21.192) scale(39.0238 24.3281)"><stop stop-color="#6BA0E2"/><stop offset="1" stop-color="#131E32"/></radialGradient><radialGradient id="paint8_radial_746_28704" cx="0" cy="0" r="1" gradientUnits="userSpaceOnUse" gradientTransform="matrix(-13.9441 1.31099 -3.50703 -37.302 30.043 36.415)"><stop stop-color="#25C2F2" stop-opacity=".626"/><stop offset="1" stop-color="#293F64"/></radialGradient><radialGradient id="paint9_radial_746_28704" cx="0" cy="0" r="1" gradientUnits="userSpaceOnUse" gradientTransform="matrix(-5.67688 -22.42986 86.6218 -21.92351 21.597 44.855)"><stop stop-color="#6BA0E2"/><stop offset="1" stop-color="#131E32"/></radialGradient><radialGradient id="paint10_radial_746_28704" cx="0" cy="0" r="1" gradientUnits="userSpaceOnUse" gradientTransform="matrix(-40.20395 -2.22734 .78611 -14.18954 63.283 38)"><stop stop-color="#25C2F2" stop-opacity=".626"/><stop offset="1" stop-color="#293F64"/></radialGradient><radialGradient id="paint12_radial_746_28704" cx="0" cy="0" r="1" gradientUnits="userSpaceOnUse" gradientTransform="matrix(9.93519 12.59974 -14.35272 11.31745 32.629 38.438)"><stop stop-color="#2B436F"/><stop offset="1" stop-color="#18263E"/></radialGradient><radialGradient id="paint14_radial_746_28704" cx="0" cy="0" r="1" gradientUnits="userSpaceOnUse" gradientTransform="matrix(3.22272 0 0 7.09219 27.404 48.922)"><stop stop-color="#21C8F6"/><stop offset="1" stop-color="#4BDEFF"/></radialGradient><radialGradient id="paint19_radial_746_28704" cx="0" cy="0" r="1" gradientUnits="userSpaceOnUse" gradientTransform="rotate(178.475 31.916 10.855) scale(22.827 7.87922)"><stop stop-color="#25C2F2" stop-opacity=".626"/><stop offset="1" stop-color="#293F64"/></radialGradient><radialGradient id="paint20_radial_746_28704" cx="0" cy="0" r="1" gradientUnits="userSpaceOnUse" gradientTransform="matrix(2.10385 0 0 1.05193 46.148 18.746)"><stop stop-color="#21C8F6"/><stop offset="1" stop-color="#4BDEFF"/></radialGradient><radialGradient id="paint21_radial_746_28704" cx="0" cy="0" r="1" gradientUnits="userSpaceOnUse" gradientTransform="matrix(.45082 0 0 .30055 42.962 21.712)"><stop stop-color="#21C8F6"/><stop offset="1" stop-color="#4BDEFF"/></radialGradient><radialGradient id="paint22_radial_746_28704" cx="0" cy="0" r="1" gradientUnits="userSpaceOnUse" gradientTransform="matrix(.45082 0 0 .30055 44.72 22.59)"><stop stop-color="#21C8F6"/><stop offset="1" stop-color="#4BDEFF"/></radialGradient><radialGradient id="paint23_radial_746_28704" cx="0" cy="0" r="1" gradientUnits="userSpaceOnUse" gradientTransform="matrix(.45082 0 0 .30055 46.917 22.152)"><stop stop-color="#21C8F6"/><stop offset="1" stop-color="#4BDEFF"/></radialGradient><radialGradient id="paint24_radial_746_28704" cx="0" cy="0" r="1" gradientUnits="userSpaceOnUse" gradientTransform="matrix(.45082 0 0 .30055 49.333 22.152)"><stop stop-color="#21C8F6"/><stop offset="1" stop-color="#4BDEFF"/></radialGradient><radialGradient id="paint26_radial_746_28704" cx="0" cy="0" r="1" gradientUnits="userSpaceOnUse" gradientTransform="matrix(8.2574 5.25027 -8.43225 13.26187 46.121 25.037)"><stop stop-color="#2B436F"/><stop offset="1" stop-color="#18263E"/></radialGradient><radialGradient id="paint27_radial_746_28704" cx="0" cy="0" r="1" gradientUnits="userSpaceOnUse" gradientTransform="matrix(3.1618 0 0 6.94363 43.861 28.967)"><stop stop-color="#21C8F6"/><stop offset="1" stop-color="#4BDEFF"/></radialGradient><radialGradient id="paint29_radial_746_28704" cx="0" cy="0" r="1" gradientUnits="userSpaceOnUse" gradientTransform="rotate(19.784 -80.556 135.497) scale(7.48979 3.49686)"><stop stop-color="#21C8F6"/><stop offset="1" stop-color="#4BDEFF" stop-opacity="0"/></radialGradient><linearGradient id="paint3_linear_746_28704" x1="14.763" y1="21.404" x2="21.807" y2="27.997" gradientUnits="userSpaceOnUse"><stop stop-color="#70A6E9"/><stop offset="1" stop-color="#385076"/></linearGradient><linearGradient id="paint5_linear_746_28704" x1="21.706" y1="44.369" x2="35.361" y2="45.889" gradientUnits="userSpaceOnUse"><stop stop-color="#2B436F"/><stop offset="1" stop-color="#142035"/></linearGradient><linearGradient id="paint11_linear_746_28704" x1="28.14" y1="49.848" x2="60.212" y2="59.69" gradientUnits="userSpaceOnUse"><stop stop-color="#2B436F"/><stop offset="1" stop-color="#142035"/></linearGradient><linearGradient id="paint13_linear_746_28704" x1="19.301" y1="50.699" x2="31.316" y2="56.443" gradientUnits="userSpaceOnUse"><stop stop-color="#4B71A3"/><stop offset="1" stop-color="#18263E"/></linearGradient><linearGradient id="paint15_linear_746_28704" x1="29.534" y1="45.306" x2="35.616" y2="47.46" gradientUnits="userSpaceOnUse"><stop stop-color="#3BD6FC"/><stop offset="1" stop-color="#2BCEF9" stop-opacity="0"/></linearGradient><linearGradient id="paint16_linear_746_28704" x1="32.037" y1="43.655" x2="30.202" y2="39.486" gradientUnits="userSpaceOnUse"><stop stop-color="#3BD6FC"/><stop offset="1" stop-color="#2BCEF9" stop-opacity="0"/></linearGradient><linearGradient id="paint17_linear_746_28704" x1="1166080000000" y1="44.671" x2="1166080000000" y2="52.91" gradientUnits="userSpaceOnUse"><stop stop-color="#3BD6FC"/><stop offset="1" stop-color="#2BCEF9" stop-opacity="0"/></linearGradient><linearGradient id="paint18_linear_746_28704" x1="36.506" y1="23.261" x2="42.281" y2="32.229" gradientUnits="userSpaceOnUse"><stop stop-color="#6BA0E2"/><stop offset="1" stop-color="#385076"/></linearGradient><linearGradient id="paint25_linear_746_28704" x1="45.615" y1="31.538" x2="58.37" y2="34.892" gradientUnits="userSpaceOnUse"><stop stop-color="#2B436F"/><stop offset="1" stop-color="#142035"/></linearGradient><linearGradient id="paint28_linear_746_28704" x1="46.011" y1="25.533" x2="52.093" y2="27.687" gradientUnits="userSpaceOnUse"><stop stop-color="#3BD6FC"/><stop offset="1" stop-color="#2BCEF9" stop-opacity="0"/></linearGradient><linearGradient id="paint30_linear_746_28704" x1="22.064" y1="23.995" x2="28.146" y2="26.149" gradientUnits="userSpaceOnUse"><stop stop-color="#3BD6FC"/><stop offset="1" stop-color="#2BCEF9" stop-opacity="0"/></linearGradient><linearGradient id="paint31_linear_746_28704" x1="24.567" y1="22.344" x2="22.732" y2="18.175" gradientUnits="userSpaceOnUse"><stop stop-color="#3BD6FC"/><stop offset="1" stop-color="#2BCEF9" stop-opacity="0"/></linearGradient><linearGradient id="paint32_linear_746_28704" x1="22.98" y1="26.433" x2="22.372" y2="36.791" gradientUnits="userSpaceOnUse"><stop stop-color="#3BD6FC"/><stop offset="1" stop-color="#2BCEF9" stop-opacity="0"/></linearGradient><filter id="filter0_d_746_28704" x="8.479" y="38.071" width="29.68" height="27.011" filterUnits="userSpaceOnUse" color-interpolation-filters="sRGB"><feFlood flood-opacity="0" result="BackgroundImageFix"/><feColorMatrix in="SourceAlpha" values="0 0 0 0 0 0 0 0 0 0 0 0 0 0 0 0 0 0 127 0" result="hardAlpha"/><feOffset/><feGaussianBlur stdDeviation="3.76"/><feColorMatrix values="0 0 0 0 0.137255 0 0 0 0 0.788235 0 0 0 0 0.968627 0 0 0 1 0"/><feBlend in2="BackgroundImageFix" result="effect1_dropShadow_746_28704"/><feBlend in="SourceGraphic" in2="effect1_dropShadow_746_28704" result="shape"/></filter><filter id="filter1_d_746_28704" x="9.487" y="10.756" width="25.465" height="18.066" filterUnits="userSpaceOnUse" color-interpolation-filters="sRGB"><feFlood flood-opacity="0" result="BackgroundImageFix"/><feColorMatrix in="SourceAlpha" values="0 0 0 0 0 0 0 0 0 0 0 0 0 0 0 0 0 0 127 0" result="hardAlpha"/><feOffset/><feGaussianBlur stdDeviation="2.622"/><feColorMatrix values="0 0 0 0 0.137255 0 0 0 0 0.788235 0 0 0 0 0.968627 0 0 0 0.5 0"/><feBlend in2="BackgroundImageFix" result="effect1_dropShadow_746_28704"/><feBlend in="SourceGraphic" in2="effect1_dropShadow_746_28704" result="shape"/></filter><filter id="filter2_d_746_28704" x="16.934" y="35.825" width="18.018" height="23.526" filterUnits="userSpaceOnUse" color-interpolation-filters="sRGB"><feFlood flood-opacity="0" result="BackgroundImageFix"/><feColorMatrix in="SourceAlpha" values="0 0 0 0 0 0 0 0 0 0 0 0 0 0 0 0 0 0 127 0" result="hardAlpha"/><feOffset/><feGaussianBlur stdDeviation="2.622"/><feColorMatrix values="0 0 0 0 0.137255 0 0 0 0 0.788235 0 0 0 0 0.968627 0 0 0 0.5 0"/><feBlend in2="BackgroundImageFix" result="effect1_dropShadow_746_28704"/><feBlend in="SourceGraphic" in2="effect1_dropShadow_746_28704" result="shape"/></filter><filter id="filter3_d_746_28704" x="43.772" y="17.139" width="4.751" height="3.214" filterUnits="userSpaceOnUse" color-interpolation-filters="sRGB"><feFlood flood-opacity="0" result="BackgroundImageFix"/><feColorMatrix in="SourceAlpha" values="0 0 0 0 0 0 0 0 0 0 0 0 0 0 0 0 0 0 127 0" result="hardAlpha"/><feOffset/><feGaussianBlur stdDeviation=".419"/><feColorMatrix values="0 0 0 0 0.137255 0 0 0 0 0.788235 0 0 0 0 0.968627 0 0 0 1 0"/><feBlend in2="BackgroundImageFix" result="effect1_dropShadow_746_28704"/><feBlend in="SourceGraphic" in2="effect1_dropShadow_746_28704" result="shape"/></filter><filter id="filter4_d_746_28704" x="41.795" y="20.655" width="2.335" height="2.115" filterUnits="userSpaceOnUse" color-interpolation-filters="sRGB"><feFlood flood-opacity="0" result="BackgroundImageFix"/><feColorMatrix in="SourceAlpha" values="0 0 0 0 0 0 0 0 0 0 0 0 0 0 0 0 0 0 127 0" result="hardAlpha"/><feOffset/><feGaussianBlur stdDeviation=".419"/><feColorMatrix values="0 0 0 0 0.137255 0 0 0 0 0.788235 0 0 0 0 0.968627 0 0 0 1 0"/><feBlend in2="BackgroundImageFix" result="effect1_dropShadow_746_28704"/><feBlend in="SourceGraphic" in2="effect1_dropShadow_746_28704" result="shape"/></filter><filter id="filter5_d_746_28704" x="43.552" y="21.533" width="2.335" height="2.115" filterUnits="userSpaceOnUse" color-interpolation-filters="sRGB"><feFlood flood-opacity="0" result="BackgroundImageFix"/><feColorMatrix in="SourceAlpha" values="0 0 0 0 0 0 0 0 0 0 0 0 0 0 0 0 0 0 127 0" result="hardAlpha"/><feOffset/><feGaussianBlur stdDeviation=".419"/><feColorMatrix values="0 0 0 0 0.137255 0 0 0 0 0.788235 0 0 0 0 0.968627 0 0 0 1 0"/><feBlend in2="BackgroundImageFix" result="effect1_dropShadow_746_28704"/><feBlend in="SourceGraphic" in2="effect1_dropShadow_746_28704" result="shape"/></filter><filter id="filter6_d_746_28704" x="45.749" y="21.094" width="2.335" height="2.115" filterUnits="userSpaceOnUse" color-interpolation-filters="sRGB"><feFlood flood-opacity="0" result="BackgroundImageFix"/><feColorMatrix in="SourceAlpha" values="0 0 0 0 0 0 0 0 0 0 0 0 0 0 0 0 0 0 127 0" result="hardAlpha"/><feOffset/><feGaussianBlur stdDeviation=".419"/><feColorMatrix values="0 0 0 0 0.137255 0 0 0 0 0.788235 0 0 0 0 0.968627 0 0 0 1 0"/><feBlend in2="BackgroundImageFix" result="effect1_dropShadow_746_28704"/><feBlend in="SourceGraphic" in2="effect1_dropShadow_746_28704" result="shape"/></filter><filter id="filter7_d_746_28704" x="48.166" y="21.094" width="2.335" height="2.115" filterUnits="userSpaceOnUse" color-interpolation-filters="sRGB"><feFlood flood-opacity="0" result="BackgroundImageFix"/><feColorMatrix in="SourceAlpha" values="0 0 0 0 0 0 0 0 0 0 0 0 0 0 0 0 0 0 127 0" result="hardAlpha"/><feOffset/><feGaussianBlur stdDeviation=".419"/><feColorMatrix values="0 0 0 0 0.137255 0 0 0 0 0.788235 0 0 0 0 0.968627 0 0 0 1 0"/><feBlend in2="BackgroundImageFix" result="effect1_dropShadow_746_28704"/><feBlend in="SourceGraphic" in2="effect1_dropShadow_746_28704" result="shape"/></filter><filter id="filter8_d_746_28704" x="33.49" y="16.034" width="17.875" height="23.252" filterUnits="userSpaceOnUse" color-interpolation-filters="sRGB"><feFlood flood-opacity="0" result="BackgroundImageFix"/><feColorMatrix in="SourceAlpha" values="0 0 0 0 0 0 0 0 0 0 0 0 0 0 0 0 0 0 127 0" result="hardAlpha"/><feOffset/><feGaussianBlur stdDeviation="2.622"/><feColorMatrix values="0 0 0 0 0.137255 0 0 0 0 0.788235 0 0 0 0 0.968627 0 0 0 0.5 0"/><feBlend in2="BackgroundImageFix" result="effect1_dropShadow_746_28704"/><feBlend in="SourceGraphic" in2="effect1_dropShadow_746_28704" result="shape"/></filter><filter id="filter9_d_746_28704" x="14.679" y="24.956" width="38.989" height="23.83" filterUnits="userSpaceOnUse" color-interpolation-filters="sRGB"><feFlood flood-opacity="0" result="BackgroundImageFix"/><feColorMatrix in="SourceAlpha" values="0 0 0 0 0 0 0 0 0 0 0 0 0 0 0 0 0 0 127 0" result="hardAlpha"/><feOffset/><feGaussianBlur stdDeviation="3.76"/><feColorMatrix values="0 0 0 0 0.137255 0 0 0 0 0.788235 0 0 0 0 0.968627 0 0 0 0.4 0"/><feBlend in2="BackgroundImageFix" result="effect1_dropShadow_746_28704"/><feBlend in="SourceGraphic" in2="effect1_dropShadow_746_28704" result="shape"/></filter></defs></svg>