<svg width="66" height="66" fill="none" xmlns="http://www.w3.org/2000/svg"><rect x=".8" y=".8" width="64.4" height="64.4" rx="21.6" stroke="#000" stroke-opacity=".03" stroke-width="1.6"/><path fill-rule="evenodd" clip-rule="evenodd" d="M6 22.221a8.024 8.024 0 014.223-7.07l19-10.201a7.982 7.982 0 017.553 0l19 10.2A8.024 8.024 0 0160 22.221v21.558a8.024 8.024 0 01-4.224 7.07l-19 10.201a7.982 7.982 0 01-7.553 0l-19-10.2A8.024 8.024 0 016 43.779V22.221z" fill="url(#paint0_radial_746_28707)"/><path fill-rule="evenodd" clip-rule="evenodd" d="M9 23.313a7.218 7.218 0 013.779-6.345l16.78-9.095a7.222 7.222 0 016.882 0l16.78 9.095A7.218 7.218 0 0157 23.313v19.374a7.218 7.218 0 01-3.779 6.345l-16.78 9.095a7.222 7.222 0 01-6.882 0l-16.78-9.095A7.218 7.218 0 019 42.687V23.313z" fill="url(#paint1_radial_746_28707)"/><path fill-rule="evenodd" clip-rule="evenodd" d="M33.2 20.846c8.791 0 13.09-1.649 15.01-2.786.358-.211.771.174.59.55l-1.134 2.36c-.675 1.404-3.638 2.296-3.638 2.296S38.614 24.51 33.2 24.51s-9.619-.84-10.828-1.244a51.618 51.618 0 00-.263-.087c-1.187-.39-2.748-.904-3.375-2.21l-1.135-2.359c-.18-.376.233-.762.59-.55 1.92 1.137 6.22 2.786 15.011 2.786zm0 5.49c-6.673 0-13.346-2.271-13.346-2.271v3.91c0 .522.421.946.94.946h1.745v2.502h-6.09c-.248 0-.449.184-.449.41v1.571c0 .227.201.41.45.41h6.09v2.432h-6.09c-.249 0-.45.184-.45.41v1.57c0 .227.201.411.45.411h6.09v6.775a.714.714 0 00-.712.717v1.748c0 .396.319.716.712.716h3.082c.393 0 .712-.32.712-.716v-1.748a.715.715 0 00-.711-.717v-6.775h15.155v6.775a.715.715 0 00-.712.717v1.748c0 .396.319.716.712.716h3.082c.393 0 .712-.32.712-.716v-1.748a.714.714 0 00-.71-.717v-6.775h6.163c.248 0 .45-.184.45-.41v-1.57c0-.227-.202-.411-.45-.411H43.86v-2.431h6.164c.248 0 .45-.184.45-.41v-1.571c0-.227-.202-.41-.45-.41H43.86V28.92h1.745c.519 0 .94-.423.94-.946v-3.91s-6.673 2.271-13.346 2.271zm-1.542 9.91h-6.035v-2.431h6.035v2.43zm9.12 0h-6.036v-2.431h6.036v2.43zm-15.155-4.823v-2.502h6.035v2.502h-6.035zm9.119 0v-2.502h6.036v2.502h-6.036zm-1.49 15.084a2.919 2.919 0 100-5.837 2.919 2.919 0 000 5.837z" fill="url(#paint2_linear_746_28707)"/><defs><radialGradient id="paint0_radial_746_28707" cx="0" cy="0" r="1" gradientUnits="userSpaceOnUse" gradientTransform="rotate(52.666 -.298 25.93) scale(53.5896 48.1998)"><stop stop-color="#6CA7E7"/><stop offset="1" stop-color="#345385"/></radialGradient><radialGradient id="paint1_radial_746_28707" cx="0" cy="0" r="1" gradientUnits="userSpaceOnUse" gradientTransform="matrix(0 53.9852 -48 0 33 6.007)"><stop stop-color="#263A5E"/><stop offset="1" stop-color="#0C1321"/></radialGradient><linearGradient id="paint2_linear_746_28707" x1="22.002" y1="25.648" x2="32.597" y2="50.563" gradientUnits="userSpaceOnUse"><stop stop-color="#8FC7FD"/><stop offset="1" stop-color="#5C87BE"/></linearGradient></defs></svg>