<svg width="66" height="66" fill="none" xmlns="http://www.w3.org/2000/svg"><rect x=".8" y=".8" width="64.4" height="64.4" rx="21.6" stroke="#000" stroke-opacity=".03" stroke-width="1.6"/><path fill-rule="evenodd" clip-rule="evenodd" d="M6 22.221a8.024 8.024 0 014.223-7.07l19-10.201a7.982 7.982 0 017.553 0l19 10.2A8.024 8.024 0 0160 22.221v21.558a8.024 8.024 0 01-4.224 7.07l-19 10.201a7.982 7.982 0 01-7.553 0l-19-10.2A8.024 8.024 0 016 43.779V22.221z" fill="url(#paint0_radial_748_27465)"/><path fill-rule="evenodd" clip-rule="evenodd" d="M9 23.313a7.218 7.218 0 013.779-6.345l16.78-9.095a7.222 7.222 0 016.882 0l16.78 9.095A7.218 7.218 0 0157 23.313v19.374a7.218 7.218 0 01-3.779 6.345l-16.78 9.095a7.222 7.222 0 01-6.882 0l-16.78-9.095A7.218 7.218 0 019 42.687V23.313z" fill="url(#paint1_radial_748_27465)"/><path d="M33.135 36.299a5.761 5.761 0 005.75-5.752v-6.686a5.756 5.756 0 00-11.512 0v6.686a5.761 5.761 0 005.762 5.752zm9.848-3.319a1.674 1.674 0 00-2.197.867 8.341 8.341 0 01-15.303.02 1.67 1.67 0 00-3.063 1.329 11.689 11.689 0 009.05 6.894v1.792h-2.088a3.761 3.761 0 00-3.762 3.772H40.65a3.762 3.762 0 00-3.762-3.753h-2.088V42.11a11.689 11.689 0 009.05-6.894 1.664 1.664 0 00-.866-2.225v-.01z" fill="url(#paint2_linear_748_27465)"/><defs><radialGradient id="paint0_radial_748_27465" cx="0" cy="0" r="1" gradientUnits="userSpaceOnUse" gradientTransform="rotate(52.666 -.298 25.93) scale(53.5896 48.1998)"><stop stop-color="#6CA7E7"/><stop offset="1" stop-color="#345385"/></radialGradient><radialGradient id="paint1_radial_748_27465" cx="0" cy="0" r="1" gradientUnits="userSpaceOnUse" gradientTransform="matrix(0 53.9852 -48 0 33 6.007)"><stop stop-color="#263A5E"/><stop offset="1" stop-color="#0C1321"/></radialGradient><linearGradient id="paint2_linear_748_27465" x1="26.063" y1="25.492" x2="39.064" y2="45.432" gradientUnits="userSpaceOnUse"><stop stop-color="#8FC7FD"/><stop offset="1" stop-color="#5C87BE"/></linearGradient></defs></svg>