<svg width="66" height="66" fill="none" xmlns="http://www.w3.org/2000/svg"><rect x=".8" y=".8" width="64.4" height="64.4" rx="21.6" stroke="#000" stroke-opacity=".03" stroke-width="1.6"/><path fill-rule="evenodd" clip-rule="evenodd" d="M6 22.221a8.024 8.024 0 014.223-7.07l19-10.201a7.982 7.982 0 017.553 0l19 10.2A8.024 8.024 0 0160 22.221v21.558a8.024 8.024 0 01-4.224 7.07l-19 10.201a7.982 7.982 0 01-7.553 0l-19-10.2A8.024 8.024 0 016 43.779V22.221z" fill="url(#paint0_radial_748_27464)"/><path fill-rule="evenodd" clip-rule="evenodd" d="M9 23.313a7.218 7.218 0 013.779-6.345l16.78-9.095a7.222 7.222 0 016.882 0l16.78 9.095A7.218 7.218 0 0157 23.313v19.374a7.218 7.218 0 01-3.779 6.345l-16.78 9.095a7.222 7.222 0 01-6.882 0l-16.78-9.095A7.218 7.218 0 019 42.687V23.313z" fill="url(#paint1_radial_748_27464)"/><path fill-rule="evenodd" clip-rule="evenodd" d="M44.408 19.826c3.695 1.358 2.37 5.175 2.37 5.175-4.194-2.663-2.37-5.175-2.37-5.175zm-6.369 26.481a.218.218 0 00.201.136.211.211 0 00.085-.019c6.585-2.862 10.43-6.531 11.426-10.91.668-2.93-.111-5.612-.884-7.345-.835-1.872-1.812-3.04-1.854-3.09a.216.216 0 00-.309-.023.228.228 0 00-.023.315c.01.01.979 1.167 1.788 2.983.744 1.672 1.496 4.253.857 7.06-.964 4.231-4.722 7.797-11.172 10.6a.225.225 0 00-.115.293zm7.472-2.584c2.655-2.756 5.242-1.365 5.242-1.365-1.698 3.145-5.242 1.365-5.242 1.365zm2.999-23.158c3.037 3.618.505 5.915.505 5.915-2.496-3.236-.505-5.915-.505-5.915zm3.407 5.915c1.25 3.966-1.413 4.436-1.413 4.436-1.68-3.519 1.413-4.436 1.413-4.436zm-1.1 8.873c2.904-.358 2.073-3.697 2.073-3.697-2.703.661-2.073 3.697-2.073 3.697zm-2.31 5.175c.465-4.086 3.74-3.686 3.74-3.686.132 2.665-3.74 3.686-3.74 3.686zM46.26 46.36c-3.14 2.218-4.494-.748-4.494-.748 1.832-1.808 4.494.748 4.494.748zm-2.247 1.514c-2.017 2.162-5.242-.81-5.242-.81.869-1.77 5.242.81 5.242.81zm-6.727-.69s2.334.884 2.23 2.957c0 0-2.44-.992-2.23-2.958zm-21.018-4.826s2.588-1.39 5.243 1.366c.002 0-3.542 1.78-5.242-1.366zm11.965 3.95a.212.212 0 01-.286.117c-6.584-2.862-10.428-6.531-11.425-10.91-.668-2.93.111-5.612.884-7.345.835-1.872 1.812-3.04 1.854-3.09a.216.216 0 01.309-.023.228.228 0 01.023.315c-.01.01-.979 1.167-1.788 2.983-.744 1.672-1.497 4.253-.857 7.06.964 4.231 4.722 7.797 11.172 10.6.11.047.163.18.114.293zm-7.989-21.306s-1.325-3.818 2.37-5.175c0 0 1.824 2.512-2.37 5.175zm-2.986 1.48s-2.532-2.298.505-5.916c0 0 1.991 2.679-.505 5.915zm-1.49 4.435s-2.663-.47-1.412-4.436c0 0 3.092.918 1.413 4.436zm-2.385.74s-.832 3.34 2.073 3.697c0 0 .63-3.036-2.072-3.697zm.642 5.186s3.276-.399 3.741 3.686c0 .002-3.872-1.02-3.741-3.686zm5.988 9.517c3.138 2.219 4.494-.749 4.494-.749-1.79-1.765-4.373.636-4.49.745a.064.064 0 01-.004.004zm7.49.705s-3.226 2.97-5.243.81c0-.003 4.373-2.581 5.242-.81zm-.746 3.076c-.104-2.073 2.23-2.958 2.23-2.958.21 1.966-2.23 2.958-2.23 2.958z" fill="url(#paint2_linear_748_27464)"/><path opacity=".4" fill-rule="evenodd" clip-rule="evenodd" d="M34.89 43.875v9.431c0 .92-.734 1.667-1.638 1.667-.905 0-1.638-.746-1.638-1.667v-9.431c0-.921.733-1.667 1.638-1.667.904 0 1.638.746 1.638 1.667z" fill="url(#paint3_linear_748_27464)"/><path fill-rule="evenodd" clip-rule="evenodd" d="M28.294 31.789h-1.46l6.426-10.937 6.426 10.937h-4.762v-2.9a1.651 1.651 0 10-3.303 0V37.934a1.651 1.651 0 103.303 0v-2.9h7.455c.335.036.683-.03.998-.208l.021-.012a1.62 1.62 0 00.576-2.217l-9.267-15.773A1.669 1.669 0 0033.254 16c-.573 0-1.13.295-1.44.824l-9.198 15.653a1.615 1.615 0 00-.125 1.659c.138.28.36.524.652.69.315.179.664.244.999.208h4.152a1.623 1.623 0 100-3.245zm6.63 11.927v-1.36a1.651 1.651 0 10-3.303 0v1.36a1.651 1.651 0 103.303 0z" fill="url(#paint4_linear_748_27464)"/><defs><linearGradient id="paint2_linear_748_27464" x1="20.19" y1="27.404" x2="29.592" y2="53.118" gradientUnits="userSpaceOnUse"><stop stop-color="#8FC7FD"/><stop offset="1" stop-color="#5C87BE"/></linearGradient><linearGradient id="paint3_linear_748_27464" x1="33.391" y1="42.021" x2="33.391" y2="53.768" gradientUnits="userSpaceOnUse"><stop stop-color="#75A6DE"/><stop offset="1" stop-color="#5C87BE" stop-opacity="0"/></linearGradient><linearGradient id="paint4_linear_748_27464" x1="26.129" y1="23.342" x2="38.979" y2="43.317" gradientUnits="userSpaceOnUse"><stop stop-color="#8FC7FD"/><stop offset="1" stop-color="#5C87BE"/></linearGradient><radialGradient id="paint0_radial_748_27464" cx="0" cy="0" r="1" gradientUnits="userSpaceOnUse" gradientTransform="rotate(52.666 -.298 25.93) scale(53.5896 48.1998)"><stop stop-color="#6CA7E7"/><stop offset="1" stop-color="#345385"/></radialGradient><radialGradient id="paint1_radial_748_27464" cx="0" cy="0" r="1" gradientUnits="userSpaceOnUse" gradientTransform="matrix(0 53.9852 -48 0 33 6.007)"><stop stop-color="#263A5E"/><stop offset="1" stop-color="#0C1321"/></radialGradient></defs></svg>