<svg width="66" height="66" fill="none" xmlns="http://www.w3.org/2000/svg"><rect x=".8" y=".8" width="64.4" height="64.4" rx="21.6" stroke="#000" stroke-opacity=".03" stroke-width="1.6"/><path fill-rule="evenodd" clip-rule="evenodd" d="M6 22.221a8.024 8.024 0 014.223-7.07l19-10.201a7.982 7.982 0 017.553 0l19 10.2A8.024 8.024 0 0160 22.221v21.558a8.024 8.024 0 01-4.224 7.07l-19 10.201a7.982 7.982 0 01-7.553 0l-19-10.2A8.024 8.024 0 016 43.779V22.221z" fill="url(#paint0_radial_747_29081)"/><path fill-rule="evenodd" clip-rule="evenodd" d="M9 23.313a7.218 7.218 0 013.779-6.345l16.78-9.095a7.222 7.222 0 016.882 0l16.78 9.095A7.218 7.218 0 0157 23.313v19.374a7.218 7.218 0 01-3.779 6.345l-16.78 9.095a7.222 7.222 0 01-6.882 0l-16.78-9.095A7.218 7.218 0 019 42.687V23.313z" fill="url(#paint1_radial_747_29081)"/><g opacity=".25"><path opacity=".25" d="M32.081 33.554a.983.983 0 011.77 0l2.176 4.485c.143.295.425.5.75.545l4.938.684a.983.983 0 01.547 1.683l-3.593 3.456a.983.983 0 00-.286.881l.875 4.908a.983.983 0 01-1.432 1.04l-4.397-2.349a.984.984 0 00-.927 0l-4.397 2.35a.983.983 0 01-1.431-1.04l.875-4.909a.983.983 0 00-.286-.881L23.67 40.95a.984.984 0 01.547-1.683l4.938-.684a.983.983 0 00.75-.545l2.176-4.485z" fill="url(#paint2_linear_747_29081)"/><path d="M32.081 33.554a.983.983 0 011.77 0l2.176 4.485c.143.295.425.5.75.545l4.938.684a.983.983 0 01.547 1.683l-3.593 3.456a.983.983 0 00-.286.881l.875 4.908a.983.983 0 01-1.432 1.04l-4.397-2.349a.984.984 0 00-.927 0l-4.397 2.35a.983.983 0 01-1.431-1.04l.875-4.909a.983.983 0 00-.286-.881L23.67 40.95a.984.984 0 01.547-1.683l4.938-.684a.983.983 0 00.75-.545l2.176-4.485z" fill="url(#paint3_linear_747_29081)"/></g><g opacity=".25"><path opacity=".25" d="M25.1 14.324a.576.576 0 011.035 0l1.273 2.625a.576.576 0 00.44.319l2.889.4a.575.575 0 01.32.985l-2.102 2.022a.575.575 0 00-.168.516l.512 2.872a.576.576 0 01-.838.609l-2.573-1.375a.576.576 0 00-.542 0l-2.573 1.375a.576.576 0 01-.838-.61l.512-2.871a.576.576 0 00-.167-.516l-2.103-2.022a.575.575 0 01.32-.985l2.89-.4a.576.576 0 00.439-.32l1.273-2.624z" fill="url(#paint4_linear_747_29081)"/><path d="M25.1 14.324a.576.576 0 011.035 0l1.273 2.625a.576.576 0 00.44.319l2.889.4a.575.575 0 01.32.985l-2.102 2.022a.575.575 0 00-.168.516l.512 2.872a.576.576 0 01-.838.609l-2.573-1.375a.576.576 0 00-.542 0l-2.573 1.375a.576.576 0 01-.838-.61l.512-2.871a.576.576 0 00-.167-.516l-2.103-2.022a.575.575 0 01.32-.985l2.89-.4a.576.576 0 00.439-.32l1.273-2.624z" fill="url(#paint5_linear_747_29081)"/></g><g opacity=".25"><path opacity=".25" d="M41.135 14.324a.576.576 0 00-1.036 0l-1.273 2.625a.576.576 0 01-.44.319l-2.889.4a.575.575 0 00-.32.985l2.103 2.022a.576.576 0 01.167.516l-.512 2.872a.576.576 0 00.838.609l2.573-1.375c.17-.09.373-.09.542 0l2.573 1.375a.576.576 0 00.838-.61l-.512-2.871a.575.575 0 01.168-.516l2.102-2.022a.575.575 0 00-.32-.985l-2.89-.4a.576.576 0 01-.439-.32l-1.273-2.624z" fill="url(#paint6_linear_747_29081)"/><path d="M41.135 14.324a.576.576 0 00-1.036 0l-1.273 2.625a.576.576 0 01-.44.319l-2.889.4a.575.575 0 00-.32.985l2.103 2.022a.576.576 0 01.167.516l-.512 2.872a.576.576 0 00.838.609l2.573-1.375c.17-.09.373-.09.542 0l2.573 1.375a.576.576 0 00.838-.61l-.512-2.871a.575.575 0 01.168-.516l2.102-2.022a.575.575 0 00-.32-.985l-2.89-.4a.576.576 0 01-.439-.32l-1.273-2.624z" fill="url(#paint7_linear_747_29081)"/></g><path opacity=".25" d="M17.574 25.354a.63.63 0 011.132 0l1.392 2.87a.63.63 0 00.48.348l3.159.437a.63.63 0 01.35 1.077l-2.299 2.21a.629.629 0 00-.183.564l.56 3.14a.63.63 0 01-.916.665l-2.813-1.502a.629.629 0 00-.592 0l-2.813 1.502a.63.63 0 01-.916-.665l.56-3.14a.629.629 0 00-.183-.563l-2.298-2.211a.63.63 0 01.35-1.077l3.158-.437a.63.63 0 00.48-.349l1.392-2.869z" fill="url(#paint8_linear_747_29081)"/><path d="M17.574 25.354a.63.63 0 011.132 0l1.392 2.87a.63.63 0 00.48.348l3.159.437a.63.63 0 01.35 1.077l-2.299 2.21a.629.629 0 00-.183.564l.56 3.14a.63.63 0 01-.916.665l-2.813-1.502a.629.629 0 00-.592 0l-2.813 1.502a.63.63 0 01-.916-.665l.56-3.14a.629.629 0 00-.183-.563l-2.298-2.211a.63.63 0 01.35-1.077l3.158-.437a.63.63 0 00.48-.349l1.392-2.869z" fill="url(#paint9_linear_747_29081)"/><g opacity=".25"><path opacity=".25" d="M48.706 25.354a.63.63 0 00-1.132 0l-1.392 2.87a.63.63 0 01-.48.348l-3.158.437a.63.63 0 00-.35 1.077l2.298 2.21c.151.146.22.358.183.564l-.56 3.14a.63.63 0 00.916.665l2.813-1.502a.629.629 0 01.593 0l2.812 1.502a.63.63 0 00.916-.665l-.56-3.14a.629.629 0 01.183-.563l2.298-2.211a.63.63 0 00-.35-1.077l-3.158-.437a.63.63 0 01-.48-.349l-1.392-2.869z" fill="url(#paint10_linear_747_29081)"/><path d="M48.706 25.354a.63.63 0 00-1.132 0l-1.392 2.87a.63.63 0 01-.48.348l-3.158.437a.63.63 0 00-.35 1.077l2.298 2.21c.151.146.22.358.183.564l-.56 3.14a.63.63 0 00.916.665l2.813-1.502a.629.629 0 01.593 0l2.812 1.502a.63.63 0 00.916-.665l-.56-3.14a.629.629 0 01.183-.563l2.298-2.211a.63.63 0 00-.35-1.077l-3.158-.437a.63.63 0 01-.48-.349l-1.392-2.869z" fill="url(#paint11_linear_747_29081)"/></g><defs><linearGradient id="paint2_linear_747_29081" x1="26.709" y1="37.589" x2="33.393" y2="52.177" gradientUnits="userSpaceOnUse"><stop stop-color="#8FC7FD"/><stop offset="1" stop-color="#5C87BE"/></linearGradient><linearGradient id="paint3_linear_747_29081" x1="26.709" y1="37.589" x2="33.393" y2="52.177" gradientUnits="userSpaceOnUse"><stop stop-color="#8FC7FD"/><stop offset="1" stop-color="#5C87BE"/></linearGradient><linearGradient id="paint4_linear_747_29081" x1="21.956" y1="16.685" x2="25.867" y2="25.222" gradientUnits="userSpaceOnUse"><stop stop-color="#8FC7FD"/><stop offset="1" stop-color="#5C87BE"/></linearGradient><linearGradient id="paint5_linear_747_29081" x1="21.956" y1="16.685" x2="25.867" y2="25.222" gradientUnits="userSpaceOnUse"><stop stop-color="#8FC7FD"/><stop offset="1" stop-color="#5C87BE"/></linearGradient><linearGradient id="paint6_linear_747_29081" x1="44.278" y1="16.685" x2="40.367" y2="25.222" gradientUnits="userSpaceOnUse"><stop stop-color="#8FC7FD"/><stop offset="1" stop-color="#5C87BE"/></linearGradient><linearGradient id="paint7_linear_747_29081" x1="44.278" y1="16.685" x2="40.367" y2="25.222" gradientUnits="userSpaceOnUse"><stop stop-color="#8FC7FD"/><stop offset="1" stop-color="#5C87BE"/></linearGradient><linearGradient id="paint8_linear_747_29081" x1="14.138" y1="27.935" x2="18.413" y2="37.267" gradientUnits="userSpaceOnUse"><stop stop-color="#8FC7FD"/><stop offset="1" stop-color="#5C87BE"/></linearGradient><linearGradient id="paint9_linear_747_29081" x1="14.138" y1="27.935" x2="18.413" y2="37.267" gradientUnits="userSpaceOnUse"><stop stop-color="#8FC7FD"/><stop offset="1" stop-color="#5C87BE"/></linearGradient><linearGradient id="paint10_linear_747_29081" x1="52.142" y1="27.935" x2="47.867" y2="37.267" gradientUnits="userSpaceOnUse"><stop stop-color="#8FC7FD"/><stop offset="1" stop-color="#5C87BE"/></linearGradient><linearGradient id="paint11_linear_747_29081" x1="52.142" y1="27.935" x2="47.867" y2="37.267" gradientUnits="userSpaceOnUse"><stop stop-color="#8FC7FD"/><stop offset="1" stop-color="#5C87BE"/></linearGradient><radialGradient id="paint0_radial_747_29081" cx="0" cy="0" r="1" gradientUnits="userSpaceOnUse" gradientTransform="rotate(52.666 -.298 25.93) scale(53.5896 48.1998)"><stop stop-color="#6CA7E7"/><stop offset="1" stop-color="#345385"/></radialGradient><radialGradient id="paint1_radial_747_29081" cx="0" cy="0" r="1" gradientUnits="userSpaceOnUse" gradientTransform="matrix(0 53.9852 -48 0 33 6.007)"><stop stop-color="#263A5E"/><stop offset="1" stop-color="#0C1321"/></radialGradient></defs></svg>