<svg width="66" height="66" fill="none" xmlns="http://www.w3.org/2000/svg"><rect x=".8" y=".8" width="64.4" height="64.4" rx="21.6" stroke="#000" stroke-opacity=".03" stroke-width="1.6"/><path fill-rule="evenodd" clip-rule="evenodd" d="M6 22.221a8.024 8.024 0 014.223-7.07l19-10.201a7.982 7.982 0 017.553 0l19 10.2A8.024 8.024 0 0160 22.221v21.558a8.024 8.024 0 01-4.224 7.07l-19 10.201a7.982 7.982 0 01-7.553 0l-19-10.2A8.024 8.024 0 016 43.779V22.221z" fill="url(#paint0_radial_748_27462)"/><path fill-rule="evenodd" clip-rule="evenodd" d="M9 23.313a7.218 7.218 0 013.779-6.345l16.78-9.095a7.222 7.222 0 016.882 0l16.78 9.095A7.218 7.218 0 0157 23.313v19.374a7.218 7.218 0 01-3.779 6.345l-16.78 9.095a7.222 7.222 0 01-6.882 0l-16.78-9.095A7.218 7.218 0 019 42.687V23.313z" fill="url(#paint1_radial_748_27462)"/><path fill-rule="evenodd" clip-rule="evenodd" d="M48.115 36.174c.557 0 1.01.458 1.01 1.022v.408c0 .564-.453 1.021-1.01 1.021H21.897c-1.11 0-2.104.531-2.738 1.356a3.514 3.514 0 000 4.305 3.526 3.526 0 002.783 1.369h26.173c.557 0 1.01.457 1.01 1.021v.408c0 .564-.453 1.022-1.01 1.022H21.958c-3.26 0-5.946-2.651-5.959-5.948-.008-3.296 2.642-5.984 5.898-5.984h26.218zm-1.18 3.676v4.58H21.942c-1.26 0-2.295-1.018-2.307-2.267a2.308 2.308 0 01.655-1.634 2.24 2.24 0 011.607-.679h25.038zm-11.46-23.97l.13.036 1.46.649c.205.091.225.273.044.404 0 0-1.207.866-1.823 1.54a15.755 15.755 0 00-1.669 2.203c4.36-1.83 7.713.605 7.713 4.759 0 4.302-3.227 10.904-8.177 8.864-4.7 1.973-8.175-4.562-8.175-8.864 0-4.119 3.731-6.487 7.657-4.796 1.269-3.137 2.348-4.61 2.348-4.61a.55.55 0 01.623-.15l-.131-.036zm-6.08-.88c.554.016 1.778.157 2.704 1.038 1.23 1.173 1.085 2.856 1.085 2.856a.494.494 0 01-.446.425s-1.767.14-2.999-1.033c-1.232-1.174-1.084-2.857-1.084-2.857a.495.495 0 01.446-.425l.078-.004h.217z" fill="url(#paint2_linear_748_27462)"/><defs><radialGradient id="paint0_radial_748_27462" cx="0" cy="0" r="1" gradientUnits="userSpaceOnUse" gradientTransform="rotate(52.666 -.298 25.93) scale(53.5896 48.1998)"><stop stop-color="#6CA7E7"/><stop offset="1" stop-color="#345385"/></radialGradient><radialGradient id="paint1_radial_748_27462" cx="0" cy="0" r="1" gradientUnits="userSpaceOnUse" gradientTransform="matrix(0 53.9852 -48 0 33 6.007)"><stop stop-color="#263A5E"/><stop offset="1" stop-color="#0C1321"/></radialGradient><linearGradient id="paint2_linear_748_27462" x1="21.767" y1="23.276" x2="34.169" y2="49.173" gradientUnits="userSpaceOnUse"><stop stop-color="#8FC7FD"/><stop offset="1" stop-color="#5C87BE"/></linearGradient></defs></svg>