<svg width="66" height="66" fill="none" xmlns="http://www.w3.org/2000/svg"><path fill-rule="evenodd" clip-rule="evenodd" d="M6 22.221a8.024 8.024 0 014.223-7.07l19-10.201a7.982 7.982 0 017.553 0l19 10.2A8.024 8.024 0 0160 22.221v21.558a8.024 8.024 0 01-4.224 7.07l-19 10.201a7.982 7.982 0 01-7.553 0l-19-10.2A8.024 8.024 0 016 43.779V22.221z" fill="url(#paint0_radial_755_27294)"/><path fill-rule="evenodd" clip-rule="evenodd" d="M9 23.313a7.218 7.218 0 013.779-6.345l16.78-9.095a7.222 7.222 0 016.882 0l16.78 9.095A7.218 7.218 0 0157 23.313v19.374a7.218 7.218 0 01-3.779 6.345l-16.78 9.095a7.222 7.222 0 01-6.882 0l-16.78-9.095A7.218 7.218 0 019 42.687V23.313z" fill="url(#paint1_radial_755_27294)"/><path d="M31.07 14s4.093.784 4.499 3.08c.54 3.062-6.078 4.778-5.538 7.84.406 2.296 4.5 3.08 4.5 3.08" stroke="#7BAEE4" stroke-width="2.002" stroke-linecap="round"/><path fill-rule="evenodd" clip-rule="evenodd" d="M46.047 42.41a5.04 5.04 0 100-10.08 5.04 5.04 0 000 10.08zm-.517-1.895a3.145 3.145 0 100-6.29 3.145 3.145 0 000 6.29z" fill="url(#paint2_linear_755_27294)"/><path fill-rule="evenodd" clip-rule="evenodd" d="M32.562 31.726c7.138 0 12.925-1.389 12.925-3.102a.817.817 0 00-.08-.345h.855V35c0 7.567-6.133 13.7-13.7 13.7-7.566 0-13.7-6.133-13.7-13.7v-6.72h.854a.818.818 0 00-.079.344c0 1.713 5.787 3.102 12.925 3.102z" fill="url(#paint3_linear_755_27294)"/><path fill-rule="evenodd" clip-rule="evenodd" d="M32.562 31.726c7.567 0 13.7-1.543 13.7-3.447 0-1.903-6.133-3.446-13.7-3.446-7.566 0-13.7 1.543-13.7 3.447 0 1.903 6.134 3.446 13.7 3.446zm0 0c7.138 0 12.925-1.389 12.925-3.102 0-1.713-5.787-3.102-12.925-3.102-7.138 0-12.925 1.389-12.925 3.102 0 1.713 5.787 3.102 12.925 3.102z" fill="url(#paint4_linear_755_27294)"/><path opacity=".2" d="M20.96 28.74c-.03-1.296 2.774-2.41 6.261-2.489 7.7.4-.525 1.063-.496 2.36.03 1.296 4.09 2.256.602 2.334-3.487.079-6.338-.908-6.367-2.204z" fill="url(#paint5_linear_755_27294)"/><defs><linearGradient id="paint2_linear_755_27294" x1="42.761" y1="34.849" x2="46.54" y2="42.734" gradientUnits="userSpaceOnUse"><stop stop-color="#8FC7FD"/><stop offset="1" stop-color="#5C87BE"/></linearGradient><linearGradient id="paint3_linear_755_27294" x1="23.633" y1="33.385" x2="29.853" y2="50.801" gradientUnits="userSpaceOnUse"><stop stop-color="#8FC7FD"/><stop offset="1" stop-color="#5C87BE"/></linearGradient><linearGradient id="paint4_linear_755_27294" x1="23.633" y1="26.556" x2="24.42" y2="33.09" gradientUnits="userSpaceOnUse"><stop stop-color="#8FC7FD"/><stop offset="1" stop-color="#5C87BE"/></linearGradient><linearGradient id="paint5_linear_755_27294" x1="35.701" y1="28.375" x2="34.683" y2="22.781" gradientUnits="userSpaceOnUse"><stop stop-color="#8FC7FD"/><stop offset="1" stop-color="#5C87BE"/></linearGradient><radialGradient id="paint0_radial_755_27294" cx="0" cy="0" r="1" gradientUnits="userSpaceOnUse" gradientTransform="rotate(52.666 -.298 25.93) scale(53.5896 48.1998)"><stop stop-color="#6CA7E7"/><stop offset="1" stop-color="#345385"/></radialGradient><radialGradient id="paint1_radial_755_27294" cx="0" cy="0" r="1" gradientUnits="userSpaceOnUse" gradientTransform="matrix(0 53.9852 -48 0 33 6.007)"><stop stop-color="#263A5E"/><stop offset="1" stop-color="#0C1321"/></radialGradient></defs></svg>