<svg width="66" height="66" fill="none" xmlns="http://www.w3.org/2000/svg"><rect x=".8" y=".8" width="64.4" height="64.4" rx="21.6" stroke="#000" stroke-opacity=".03" stroke-width="1.6"/><path fill-rule="evenodd" clip-rule="evenodd" d="M6 22.221a8.024 8.024 0 014.223-7.07l19-10.201a7.982 7.982 0 017.553 0l19 10.2A8.024 8.024 0 0160 22.221v21.558a8.024 8.024 0 01-4.224 7.07l-19 10.201a7.982 7.982 0 01-7.553 0l-19-10.2A8.024 8.024 0 016 43.779V22.221z" fill="url(#paint0_radial_748_27459)"/><path fill-rule="evenodd" clip-rule="evenodd" d="M9 23.313a7.218 7.218 0 013.779-6.345l16.78-9.095a7.222 7.222 0 016.882 0l16.78 9.095A7.218 7.218 0 0157 23.313v19.374a7.218 7.218 0 01-3.779 6.345l-16.78 9.095a7.222 7.222 0 01-6.882 0l-16.78-9.095A7.218 7.218 0 019 42.687V23.313z" fill="url(#paint1_radial_748_27459)"/><path fill-rule="evenodd" clip-rule="evenodd" d="M36.181 12.725a1.45 1.45 0 012.51 1.449l-3.373 5.843h4.987A8.695 8.695 0 0149 28.712v11.593A8.695 8.695 0 0140.305 49H25.813a8.695 8.695 0 01-8.694-8.695V28.712a8.695 8.695 0 018.694-8.695h5.082l-2.425-4.2a1.449 1.449 0 112.51-1.45l2.127 3.683 3.074-5.325z" fill="url(#paint2_linear_748_27459)"/><rect x="20.017" y="22.915" width="26.085" height="23.187" rx="6.763" fill="url(#paint3_radial_748_27459)"/><path opacity=".2" fill-rule="evenodd" clip-rule="evenodd" d="M38.629 34.832L27.116 42.14h-.002a.686.686 0 01-.743 0 .837.837 0 01-.371-.707V26.817c0-.292.142-.562.371-.708a.686.686 0 01.744 0l11.512 7.308h.001l.002.001c.228.146.37.415.37.707a.837.837 0 01-.371.707z" fill="url(#paint4_linear_748_27459)"/><path fill-rule="evenodd" clip-rule="evenodd" d="M39.974 34.656l-10.267 6.517h-.002a.612.612 0 01-.662 0 .746.746 0 01-.331-.63V27.508c0-.26.127-.5.33-.63a.612.612 0 01.664 0l10.266 6.516h.002v.001c.204.13.331.37.331.63s-.127.5-.33.631z" fill="url(#paint5_linear_748_27459)"/><path fill-rule="evenodd" clip-rule="evenodd" d="M38.325 42.322c-.98.563-2.188.62-3.317.156-.482-.198-.763-.76-.627-1.253.137-.493.638-.732 1.12-.534.624.257 1.29.225 1.83-.085.54-.311.902-.871.99-1.537.07-.516.528-.83 1.025-.7.497.129.844.652.775 1.168-.162 1.206-.816 2.221-1.796 2.785z" fill="url(#paint6_radial_748_27459)"/><defs><radialGradient id="paint0_radial_748_27459" cx="0" cy="0" r="1" gradientUnits="userSpaceOnUse" gradientTransform="rotate(52.666 -.298 25.93) scale(53.5896 48.1998)"><stop stop-color="#6CA7E7"/><stop offset="1" stop-color="#345385"/></radialGradient><radialGradient id="paint1_radial_748_27459" cx="0" cy="0" r="1" gradientUnits="userSpaceOnUse" gradientTransform="matrix(0 53.9852 -48 0 33 6.007)"><stop stop-color="#263A5E"/><stop offset="1" stop-color="#0C1321"/></radialGradient><radialGradient id="paint3_radial_748_27459" cx="0" cy="0" r="1" gradientUnits="userSpaceOnUse" gradientTransform="matrix(0 23.1866 -26.0849 0 33.06 22.915)"><stop stop-color="#263A5E"/><stop offset="1" stop-color="#0C1321"/></radialGradient><radialGradient id="paint6_radial_748_27459" cx="0" cy="0" r="1" gradientUnits="userSpaceOnUse" gradientTransform="rotate(45.911 -28.177 60.143) scale(7.81313 14.9318)"><stop stop-color="#8FC1FF"/><stop offset="1" stop-color="#5879A6"/></radialGradient><linearGradient id="paint2_linear_748_27459" x1="22.669" y1="21.25" x2="37.783" y2="48.426" gradientUnits="userSpaceOnUse"><stop stop-color="#8FC7FD"/><stop offset="1" stop-color="#5C87BE"/></linearGradient><linearGradient id="paint4_linear_748_27459" x1="28.263" y1="30.063" x2="35.152" y2="41.563" gradientUnits="userSpaceOnUse"><stop stop-color="#8FC7FD"/><stop offset="1" stop-color="#5C87BE"/></linearGradient><linearGradient id="paint5_linear_748_27459" x1="30.73" y1="30.402" x2="36.874" y2="40.658" gradientUnits="userSpaceOnUse"><stop stop-color="#8FC7FD"/><stop offset="1" stop-color="#5C87BE"/></linearGradient></defs></svg>