<svg width="66" height="66" fill="none" xmlns="http://www.w3.org/2000/svg"><rect x=".8" y=".8" width="64.4" height="64.4" rx="21.6" stroke="#000" stroke-opacity=".03" stroke-width="1.6"/><path fill-rule="evenodd" clip-rule="evenodd" d="M6 22.221a8.024 8.024 0 014.223-7.07l19-10.201a7.982 7.982 0 017.553 0l19 10.2A8.024 8.024 0 0160 22.221v21.558a8.024 8.024 0 01-4.224 7.07l-19 10.201a7.982 7.982 0 01-7.553 0l-19-10.2A8.024 8.024 0 016 43.779V22.221z" fill="url(#paint0_radial_748_27463)"/><path fill-rule="evenodd" clip-rule="evenodd" d="M9 23.313a7.218 7.218 0 013.779-6.345l16.78-9.095a7.222 7.222 0 016.882 0l16.78 9.095A7.218 7.218 0 0157 23.313v19.374a7.218 7.218 0 01-3.779 6.345l-16.78 9.095a7.222 7.222 0 01-6.882 0l-16.78-9.095A7.218 7.218 0 019 42.687V23.313z" fill="url(#paint1_radial_748_27463)"/><mask id="a" style="mask-type:alpha" maskUnits="userSpaceOnUse" x="9" y="7" width="48" height="52"><path fill-rule="evenodd" clip-rule="evenodd" d="M9 23.313a7.218 7.218 0 013.779-6.345l16.78-9.095a7.222 7.222 0 016.882 0l16.78 9.095A7.218 7.218 0 0157 23.313v19.374a7.218 7.218 0 01-3.779 6.345l-16.78 9.095a7.222 7.222 0 01-6.882 0l-16.78-9.095A7.218 7.218 0 019 42.687V23.313z" fill="url(#paint2_radial_748_27463)"/></mask><g mask="url(#a)"><path d="M22.348 19.573l.308.836a.08.08 0 00.15 0l.308-.836c.25-.676.783-1.21 1.46-1.459l.835-.308a.08.08 0 000-.15l-.836-.309a2.464 2.464 0 01-1.459-1.459l-.308-.836a.08.08 0 00-.15 0l-.308.836a2.464 2.464 0 01-1.46 1.46l-.836.308a.08.08 0 000 .15l.836.308c.677.25 1.21.783 1.46 1.46z" fill="url(#paint3_linear_748_27463)"/><path d="M46.347 46.573l.309.836a.08.08 0 00.15 0l.308-.836c.25-.676.783-1.21 1.46-1.459l.835-.308a.08.08 0 000-.15l-.836-.309a2.464 2.464 0 01-1.459-1.459l-.308-.836a.08.08 0 00-.15 0l-.309.836a2.464 2.464 0 01-1.459 1.46l-.836.308a.08.08 0 000 .15l.836.308c.677.25 1.21.783 1.46 1.46z" fill="url(#paint4_linear_748_27463)"/><path d="M43.347 20.573l.309.836a.08.08 0 00.15 0l.308-.836c.25-.676.783-1.21 1.46-1.459l.835-.308a.08.08 0 000-.15l-.836-.309a2.464 2.464 0 01-1.459-1.459l-.308-.836a.08.08 0 00-.15 0l-.309.836a2.464 2.464 0 01-1.459 1.46l-.836.308a.08.08 0 000 .15l.836.308c.677.25 1.21.783 1.46 1.46z" fill="url(#paint5_linear_748_27463)"/><path fill-rule="evenodd" clip-rule="evenodd" d="M49.567 24.544A2.611 2.611 0 0046 25.5l-4.677 7.863a2.611 2.611 0 00-4.523-2.611 2.611 2.611 0 00-4.523-2.611l5.223-9.046a2.612 2.612 0 00-4.523-2.611l-9.14 15.83s-1.539-6.92-4.172-8.44c-1.936-1.118-2.746-.467-3.567.956-.644 1.115.666 2.417.958 7.434.168 2.9-.863 3.667.126 6.953.174.58.524 1.425 1.026 2.343a.71.71 0 00.116.213c.072.098.109.187.173.282.095.159.188.315.291.475.927 1.933-2.207 7.133-2.69 7.97-.978 1.693-.77 2.57.911 3.542l9.09 5.247c1.612.931 2.65.632 3.567-.955l3.473-5.575c1.056-1.828 6.31-5.708 9.442-11.132l7.942-13.516a2.611 2.611 0 00-.956-3.567z" fill="url(#paint6_linear_748_27463)"/></g><defs><linearGradient id="paint3_linear_748_27463" x1="19.607" y1="13.896" x2="21.793" y2="20.538" gradientUnits="userSpaceOnUse"><stop stop-color="#75A6DE"/><stop offset=".256" stop-color="#8FC7FD"/><stop offset="1" stop-color="#5C87BE"/></linearGradient><linearGradient id="paint4_linear_748_27463" x1="43.606" y1="40.896" x2="45.793" y2="47.538" gradientUnits="userSpaceOnUse"><stop stop-color="#75A6DE"/><stop offset=".256" stop-color="#8FC7FD"/><stop offset="1" stop-color="#5C87BE"/></linearGradient><linearGradient id="paint5_linear_748_27463" x1="40.606" y1="14.896" x2="42.793" y2="21.538" gradientUnits="userSpaceOnUse"><stop stop-color="#75A6DE"/><stop offset=".256" stop-color="#8FC7FD"/><stop offset="1" stop-color="#5C87BE"/></linearGradient><linearGradient id="paint6_linear_748_27463" x1="27.64" y1=".323" x2="22.447" y2="53.008" gradientUnits="userSpaceOnUse"><stop stop-color="#75A6DE"/><stop offset=".256" stop-color="#8FC7FD"/><stop offset="1" stop-color="#3B5D91"/></linearGradient><radialGradient id="paint0_radial_748_27463" cx="0" cy="0" r="1" gradientUnits="userSpaceOnUse" gradientTransform="rotate(52.666 -.298 25.93) scale(53.5896 48.1998)"><stop stop-color="#6CA7E7"/><stop offset="1" stop-color="#345385"/></radialGradient><radialGradient id="paint1_radial_748_27463" cx="0" cy="0" r="1" gradientUnits="userSpaceOnUse" gradientTransform="matrix(0 53.9852 -48 0 33 6.007)"><stop stop-color="#263A5E"/><stop offset="1" stop-color="#0C1321"/></radialGradient><radialGradient id="paint2_radial_748_27463" cx="0" cy="0" r="1" gradientUnits="userSpaceOnUse" gradientTransform="matrix(0 53.9852 -48 0 33 6.007)"><stop stop-color="#263A5E"/><stop offset="1" stop-color="#0C1321"/></radialGradient></defs></svg>